v 13376.014 2637.0396 895.7306
v 13336.014 2597.0396 895.70667
v 13440.014 2541.0396 901.47546
v 13400.014 2469.0396 904.5484
v 13304.014 2565.0396 896
v 13532.014 1433.0396 896
v 13484.014 1405.0396 893.5513
v 13272.014 2525.0396 896
v 13272.369 2462.3164 896
v 13408.014 2661.0396 895.9886
v 13492.014 1405.0396 894.36414
v 13504.014 2633.0396 899.3637
v 13536.014 2585.0396 903.1236
v 13516.014 2655.0396 896
v 13464.014 2749.0396 893.77875
v 13532.014 2729.0396 896
v 13500.014 2765.0396 895.4257
v 13520.014 2645.0396 896
v 12600.014 2965.0396 830.3762
v 12592.014 3069.0396 831.5431
v 12544.014 3069.0396 832
v 12344.014 2709.0396 830.3762
v 12392.014 2993.0396 832
v 12392.014 2949.0396 832
v 12529.266 2934.9773 830.26495
v 12006.014 2755.0396 877.36084
v 12376.014 2917.0396 832
v 12352.014 2733.0396 830.1517
v 12320.014 2781.0396 832
v 12320.014 2901.0396 832
v 12008.014 2469.0396 832
v 12008.014 2427.0396 832
v 12064.014 2437.0396 830.272
v 11888.014 2469.0396 832
v 11872.014 2413.0396 832
v 12008.014 2385.0396 830.27924
v 11848.014 2397.0396 831.92487
v 11816.014 2181.0396 830.1814
v 11640.014 2229.0396 832
v 11669.014 2181.0396 808.0004
v 11656.014 2403.0396 832
v 12016.014 2485.0396 832
v 12383.667 2780.8394 829.9741
v 11816.014 1981.0396 829.77594
v 11848.014 1765.0396 832
v 11872.014 1749.0396 831.9694
v 11656.014 1965.0396 808.0007
v 11644.014 1765.0396 832
v 12006.014 1407.0396 832
v 11888.014 1693.0396 832
v 12480.014 1261.0396 831.02295
v 12388.014 1181.0396 832
v 12560.014 1213.0396 830.4847
v 12384.014 1237.0396 832
v 12440.014 1301.0396 832
v 12320.014 1261.0396 832
v 12416.883 1344.1084 830.7125
v 12568.014 1085.0396 832
v 12320.014 1381.0396 832
v 12346.725 1413.1965 832.00024
v 12600.014 1197.0396 830.2221
v 12592.014 1109.0396 832
v 12056.014 1725.0396 830.10114
v 12016.014 1677.0396 832
v 11816.014 2141.0396 768
v 11088.014 2285.0396 768
v 12168.014 1705.0396 773.0682
v 11784.014 2145.0396 768
v 12068.014 2337.0396 768.7776
v 11240.014 2149.0396 766.5287
v 13024.014 2757.0396 768
v 12704.014 1749.0396 771.2442
v 11728.014 2149.0396 783.6939
v 12776.014 1653.0396 768
v 12312.014 1869.0396 768
v 13048.014 2781.0396 768
v 12264.014 2229.0396 768
v 12768.014 2501.0396 772.7433
v 11352.014 2149.0396 768
v 12072.014 2285.0396 777.35693
v 12136.014 2221.0396 775.4502
v 13388.014 2839.0396 768
v 11776.014 2005.0396 768
v 13304.014 2941.0396 768
v 12648.014 3173.0396 770.60156
v 13394.014 1321.0396 776.32574
v 11856.014 2013.0396 768
v 12020.014 2347.0396 777.6256
v 13520.014 1189.0396 768
v 11552.014 2021.0396 768
v 11240.014 1985.0396 774.5406
v 13272.014 1197.0396 768
v 13336.014 997.03955 768
v 13520.014 2965.0396 768
v 12800.014 1629.0396 768
v 13340.014 2849.0396 768
v 13332.014 1313.0396 779.0488
v 13096.014 1373.0396 778.41504
v 12512.014 2237.0396 769.5945
v 12312.014 2293.0396 768
v 12312.014 1773.0396 768
v 12264.014 1717.0396 769.1141
v 12312.014 2381.0396 768
v 12288.014 2621.0396 777.3876
v 10912.014 2133.0396 805.1223
v 12840.014 1621.0396 768
v 10960.014 1965.0396 777.79694
v 13336.014 1261.0396 777.0212
v 12752.014 2445.0396 770.7018
v 12736.014 1717.0396 772.33154
v 12180.014 1655.0396 771.2479
v 12280.014 2597.0396 771.0311
v 13096.014 2789.0396 768
v 13336.014 2901.0396 768
v 12376.014 1493.0396 769.35394
v 12272.014 1925.0396 768
v 11128.014 1981.0396 770.3189
v 12520.014 1909.0396 776.28296
v 12640.014 989.03955 768
v 12928.014 989.03955 779.7002
v 13096.014 1261.0396 777.42255
v 12192.014 1949.0396 768
v 13096.014 2901.0396 768
v 12026.014 1807.0396 769.34515
v 13144.014 1205.0396 778.95526
v 11248.014 2021.0396 772.69464
v 12640.014 1221.0396 772.3742
v 13520.014 1173.0396 768
v 11344.014 2013.0396 769.4146
v 11336.014 2029.0396 768.2094
v 12072.014 1825.0396 772.9456
v 12640.014 2941.0396 768
v 13168.014 2965.0396 768
v 11152.014 2213.0396 760.7371
v 11784.014 2021.0396 768
v 12144.014 1941.0396 768
v 13216.014 2973.0396 768
v 11224.014 2237.0396 765.8853
v 10984.014 2277.0396 781.6983
v 11104.014 1893.0396 768
v 11336.014 2125.0396 772.2102
v 12072.014 1877.0396 770.1976
v 13040.014 1381.0396 778.6048
v 12172.014 2495.0396 768
v 11064.014 1877.0396 768
v 12936.014 3173.0396 768
v 13336.014 3165.0396 768
v 12392.014 1437.0396 768
v 13016.014 2717.0396 768
v 11864.014 2157.0396 768
v 11000.014 1877.0396 776.3877
v 10843.395 1920.574 855.1378
v 10850.572 2186.0974 840.29065
v 10280.014 2205.0396 1000.32324
v 9885.264 2143.8152 1060.3956
v 10056.014 1957.0396 1007.5001
v 9965.207 2228.15 1014.7284
v 9835.796 1939.4191 1109.1752
v 9659.489 1927.0383 1227.428
v 9795.249 1878.9143 1138.2931
v 10076.44 2173.466 1031.3026
v 7898.3857 2021.9423 1408.0002
v 10488.014 1957.0396 1007.33923
v 9658.192 1983.0553 1214.766
v 10558.235 1935.9988 1013.33374
v 10624.014 2245.0396 1019.3846
v 9917.514 1919.3413 1067.1177
v 7768.014 4821.0396 1536
v 7768.014 4709.0396 1536.03
v 7824.014 4861.0396 1525.3286
v 7833.0303 4720.989 1522.3232
v 7816.014 4995.0396 1527.9952
v 7840.014 4901.0396 1519.9991
v 7800.014 4957.0396 1533.3286
v 7792.014 5093.0396 1536.422
v 7760.014 5021.0396 1537.0698
v 7760.014 5069.0396 1536
v 8064.014 4869.0396 1518.0009
v 8032.014 4669.0396 1516.0009
v 8072.014 4853.0396 1518.5009
v 8176.014 4709.0396 1537.0815
v 8128.014 4653.0396 1510.9718
v 7848.014 5071.0396 1525.2119
v 8168.014 4821.0396 1536
v 8056.014 4909.0396 1521.4854
v 7880.014 5133.0396 1527.5979
v 8080.014 4941.0396 1519.0009
v 7880.014 5149.0396 1524.9205
v 8096.014 5149.0396 1520.0048
v 8144.014 5085.0396 1536.45
v 8168.014 5013.0396 1537.5056
v 8168.014 5077.0396 1536.1464
v 8184.014 5021.0396 1536.3976
v 8160.014 4965.0396 1536
v 7872.014 5189.0396 1521.6083
v 8112.014 5189.0396 1525.338
v 8064.014 5373.0396 1524.6172
v 8168.014 5333.0396 1536
v 8168.014 5229.0396 1536
v 7840.014 5397.0396 1519.9991
v 7912.014 5485.0396 1532.6772
v 8024.014 5485.0396 1532.018
v 7928.014 5509.0396 1536
v 8008.014 5509.0396 1536
v 8056.014 5481.0396 1530.8206
v 7824.014 5469.0396 1532.5381
v 7774.7886 5334.1494 1536
v 7774.7886 5230.1494 1536
v 7856.487 4647.2593 1474.6908
v 8118.3535 4610.1553 1479.2701
v 8280.014 1717.0396 1280
v 8200.014 1581.0396 1280
v 8240.014 1581.0396 1280
v 8248.014 1749.0396 1280
v 8072.014 1637.0396 1280
v 8216.014 1805.0396 1280
v 8232.014 1805.0396 1280
v 8144.014 1501.0396 1280
v 8048.014 1501.0396 1280
v 7984.014 1581.0396 1280
v 7992.014 1637.0396 1280
v 7944.014 1581.0396 1280
v 7680.014 1685.0396 1290.9108
v 7792.014 1877.0396 1280
v 7664.014 1749.0396 1301.0996
v 7736.014 1893.0396 1280
v 7640.014 1765.0396 1308.5044
v 7720.014 1917.0396 1280
v 7536.014 1773.0396 1304.2686
v 7440.014 1885.0396 1285.9517
v 7448.014 1813.0396 1313.058
v 7496.014 1757.0396 1318.6775
v 7376.014 1725.0396 1357.3203
v 7496.014 1709.0396 1332.4199
v 7432.014 1637.0396 1350.7958
v 7232.014 1613.0396 1372.1576
v 7256.014 1733.0396 1347.4922
v 7160.014 1653.0396 1374.2472
v 7176.014 1701.0396 1348.4299
v 7200.014 1605.0396 1386.6425
v 7164.014 1609.0396 1381.4785
v 7352.014 1533.0396 1353.9972
v 7248.014 1557.0396 1357.4614
v 7318.014 1503.0396 1345.6466
v 7234.014 1507.0396 1335.2032
v 7232.014 1533.0396 1350.6287
v 7384.014 1541.0396 1377.0165
v 7440.014 1525.0396 1387.6932
v 7712.014 1981.0396 1280
v 7476.514 2209.0396 1280
v 7384.014 1941.0396 1286.5571
v 7272.014 1941.0396 1281.158
v 7088.014 2189.0396 1280
v 7256.014 2541.0396 1281.9584
v 7208.014 2541.0396 1296.4982
v 7088.014 2229.0396 1280
v 7104.014 2389.0396 1281.4595
v 12468.014 3031.0396 832
v 13414.145 2006.6892 960
v 13313.117 1996.325 960.00006
v 13312.85 2051.7305 960.00006
v 13359.567 2145.2605 960
v 13340.975 2051.5195 960.00006
v 7008.014 2285.0396 1280.449
v 7296.014 2573.0396 1283.749
v 7648.014 2669.0396 1281.7883
v 7296.014 2621.0396 1295.1188
v 7624.014 2813.0396 1289.013
v 7272.014 2725.0396 1281.1672
v 7288.014 2813.0396 1280
v 7408.014 2933.0396 1280
v 7504.014 2933.0396 1280
v 7400.014 3029.0396 1275.5217
v 7512.014 3029.0396 1276.3307
v 7360.014 3141.0396 1261.9991
v 7511.3735 3132.783 1264.0048
v 7491.1235 3322.5269 1262.0009
v 7312.014 3325.0396 1269.3286
v 7256.014 3181.0396 1280
v 7256.014 3285.0396 1280
v 7328.014 3365.0396 1267.1002
v 7505.8667 3371.957 1268.3551
v 7544.014 3389.0396 1265.9846
v 7368.014 3613.0396 1268.9205
v 7600.014 3581.0396 1270.6721
v 7656.014 3477.0396 1281.5056
v 7656.014 3541.0396 1280.1464
v 13344.014 2261.0396 959.0587
v 7648.014 3429.0396 1280
v 7584.014 3621.0396 1264.0048
v 7360.014 3653.0396 1261.9991
v 7584.014 3765.0396 1264.0048
v 7616.014 3725.0396 1274.6714
v 7600.014 3653.0396 1269.338
v 7656.014 3693.0396 1280
v 7592.014 3853.0396 1266.3683
v 7256.014 3693.0396 1280
v 7384.014 4149.0396 1271.5645
v 7496.014 4181.0396 1280
v 7616.014 3869.0396 1263.9313
v 7568.014 4173.0396 1279.0132
v 7720.014 4133.0396 1265.6798
v 7696.014 3869.0396 1264.9868
v 7808.014 4125.0396 1261.4032
v 7832.014 3821.0396 1280
v 7728.014 3845.0396 1272.9868
v 13424.014 2349.0396 961.19855
v 13488.014 2349.0396 990.47705
v 8040.014 3885.0396 1263.4897
v 8056.014 3797.0396 1280
v 7840.014 4157.0396 1268.5975
v 8144.014 4053.0396 1280
v 8072.014 3925.0396 1264.1829
v 13368.014 1965.0396 960
v 13288.014 2221.0396 958.22595
v 13360.014 1893.0396 959.33124
v 13411.684 2050.9895 960
v 13336.014 1917.0396 958.3382
v 8029.477 4384.385 1344
v 7848.014 4349.0396 1344
v 8176.014 4197.0396 1280
v 10948.014 2205.0396 793.4103
v 7696.014 4157.0396 1273.6798
v 7600.014 4197.0396 1280
v 7688.014 4205.0396 1280
v 7488.014 4197.0396 1280
v 7376.014 4205.0396 1280
v 13647.575 1876.5355 966.31006
v 9074.681 2215.7063 1264.3387
v 9165.347 2210.3728 1260.331
v 13318.337 2169.278 960
v 7360.014 3037.0396 1273.3087
v 7544.014 2917.0396 1283.1986
v 7368.014 2917.0396 1280
v 7388.005 3101.3083 1266.1749
v 7664.014 2661.0396 1282.8492
v 7712.014 2237.0396 1280
v 7712.014 2181.0396 1280
v 13572.014 2297.0396 964.5484
v 13488.014 1593.0396 896
v 10775.053 2205.7449 899.98865
v 7936.014 2581.0396 1280
v 7872.014 2661.0396 1280
v 7904.014 2645.0396 1280
v 8000.014 2525.0396 1280.5527
v 7992.014 2581.0396 1280
v 8064.014 2525.0396 1280
v 8040.014 2653.0396 1280
v 8152.014 2653.0396 1280
v 8192.014 2581.0396 1280
v 8176.014 2405.0396 1289.1935
v 8248.014 2413.0396 1282.0894
v 8296.014 2453.0396 1280
v 8256.014 2581.0396 1280
v 8360.014 2605.0396 1280
v 8408.014 2453.0396 1280
v 8624.014 2341.0396 1280
v 8472.014 2381.0396 1280
v 8472.014 2293.0396 1280
v 8672.014 2245.0396 1280
v 8696.014 2325.0396 1280
v 8696.014 2261.0396 1280
v 8672.014 2221.0396 1280
v 8424.014 2229.0396 1280
v 8688.014 1965.0396 1280
v 8344.014 1997.0396 1294.5782
v 7956.252 2054.1794 1408
v 8344.014 2165.0396 1293.1871
v 7955.02 2106.3782 1408
v 7904.8315 2127.1929 1408
v 8672.014 1941.0396 1280
v 8472.014 1869.0396 1280
v 8672.014 1917.0396 1280
v 8632.014 1821.0396 1280
v 8696.014 1837.0396 1280
v 8696.014 1901.0396 1280
v 8608.014 1797.0396 1287.125
v 8472.014 1781.0396 1280
v 8608.014 1765.0396 1289.7885
v 8424.014 1717.0396 1280
v 8352.014 1541.0396 1280
v 8384.014 1701.0396 1280
v 8272.014 1557.0396 1280
v 8296.014 1501.0396 1280
v 8344.014 1501.0396 1280
v 8712.014 2189.0396 1280
v 8784.014 1965.0396 1277.3016
v 8832.014 2173.0396 1263.7927
v 8872.014 1949.0396 1264.9868
v 8832.014 1941.0396 1270.7141
v 8808.014 1917.0396 1279.0938
v 8872.014 2173.0396 1269.1362
v 8912.014 2181.0396 1262.315
v 8940.014 1929.0396 1271.6534
v 8904.014 1933.0396 1270.3202
v 8924.014 1905.0396 1279.6534
v 9032.014 1957.0396 1263.5001
v 8976.014 1925.0396 1272.9868
v 8984.014 2221.0396 1268.3466
v 9256.014 2205.0396 1256.3232
v 9464.014 1957.0396 1263.3392
v 9600.014 2245.0396 1275.3846
v 9520.014 1925.0396 1272.9868
v 9600.014 2029.0396 1226.1353
v 9624.014 2125.0396 1229.3948
v 9648.014 2229.0396 1225.8511
v 9664.014 2213.0396 1221.2178
v 9664.014 2141.0396 1209.6553
v 9600.014 1949.0396 1244.3955
v 9576.014 1913.0396 1252.5225
v 8912.014 2229.0396 1271.0132
v 8936.014 2277.0396 1280
v 8968.014 2277.0396 1280
v 8816.014 2189.0396 1268.404
v 8296.014 2653.0396 1280
v 8344.014 2661.0396 1280
v 7088.014 1973.0396 1280
v 7008.014 2133.0396 1280
v 7008.014 2029.0396 1280
v 7208.014 1869.0396 1283.2163
v 7088.014 1941.0396 1280
v 7096.014 1789.0396 1286.6666
v 7008.014 1877.0396 1280
v 7014.014 1775.0396 1283.576
v 7208.014 1773.0396 1291.6482
v 7136.014 1749.0396 1287.7997
v 7664.014 1621.0396 1303.1376
v 12212.758 2461.862 768
v 7844.014 4253.0396 1306.2988
v 7675.45 1603.7966 1336.7911
v 7659.132 1565.1937 1356.9082
v 7959.2856 3807.4033 1280
v 7056.014 2337.0396 1280.9542
v 7896.014 1501.0396 1280
v 7659.132 1511.1937 1368.6951
v 8077.4966 4349.3223 1344
v 8172.442 4329.2134 1344
v 8041.935 4416.032 1344
v 8133.999 4462.0737 1387.9441
v 7355.2847 4046.6914 1262.4265
v 7252.5737 4018.9756 1280.0002
v 7338.2896 3557.5596 1268.6683
v 13277.347 1429.0396 831.39417
v 7816.014 1909.0396 1342.2269
v 7784.014 2077.0396 1344
v 7776.703 1982.4597 1344
v 7782.1123 2155.741 1344
v 7776.014 1917.0396 1343.9602
v 7752.014 1941.0396 1342.3801
v 7837.831 1983.4127 1344
v 7838.764 2081.5322 1358.5691
v 7837.8145 2181.5945 1344
v 12572.901 1279.4922 771.1905
v 12404.891 2727.2913 774.27057
v 12571.853 2879.0747 769.8178
v 12513.875 2160.7063 773.309
v 12517.9 1995.6696 779.811
v 13080.014 2749.0396 829.77875
v 13344.014 2669.0396 839.01886
v 13320.014 2733.0396 831.9138
v 13128.014 2453.0396 832
v 13008.014 2645.0396 831.9845
v 13104.014 2453.0396 832
v 13032.014 2397.0396 832
v 12712.014 2325.0396 832
v 12976.014 2317.0396 832
v 12912.014 2269.0396 832
v 12896.014 2245.0396 832
v 12872.014 2157.0396 832
v 12632.014 2277.0396 808.0007
v 12664.014 2309.0396 808.0007
v 12580.523 2012.7151 832
v 12968.014 2285.0396 832
v 12680.014 2333.0396 808.00055
v 12587.585 2157.6 832
v 12552.014 2221.0396 830.22595
v 13040.014 2365.0396 842.8202
v 12872.014 2077.0396 832
v 12552.014 1941.0396 830.38007
v 12888.014 1973.0396 832
v 12912.014 1893.0396 832
v 12824.014 1669.0396 830.18256
v 12968.014 1845.0396 832
v 12968.014 1869.0396 832
v 12872.014 1653.0396 830.227
v 13120.014 1717.0396 832
v 13080.014 1413.0396 830.18256
v 13368.014 1477.0396 832
v 13376.014 1437.0396 832
v 12896.014 2181.0396 832
v 13248.014 2261.0396 896
v 13248.014 2181.0396 896
v 13016.014 2277.0396 872.0007
v 13048.014 2309.0396 872.0007
v 13096.014 2325.0396 896
v 13064.014 2333.0396 872.00055
v 13208.014 2269.0396 896
v 13208.014 2361.0396 896.00006
v 13172.014 2409.0396 894.0478
v 13224.014 2157.0396 896
v 12967.633 2160.8174 896
v 12936.014 2221.0396 894.22595
v 13232.648 1750.2603 896
v 13224.014 2077.0396 896
v 12936.014 1941.0396 894.38007
v 13240.014 1973.0396 896
v 13568.014 1541.0396 896
v 13552.014 1565.0396 896
v 13208.014 1885.0396 896
v 13256.014 1893.0396 896
v 13164.149 1760.2963 894.07745
v 12959.854 2005.0146 896
v 13424.014 1621.0396 896
v 13384.014 1685.0396 895.7852
v 13328.014 1573.0396 895.48267
v 13256.014 1653.0396 894.227
v 13276.648 1700.2603 896
v 13312.014 1573.0396 892.5765
v 13528.014 1485.0396 896
v 13416.014 1885.0396 959.88336
v 13488.014 1821.0396 989.8642
v 13416.014 1973.0396 960
v 13424.014 1821.0396 965.6286
v 13520.014 1885.0396 960
v 13408.014 2117.0396 960
v 13640.014 2317.0396 969.1109
v 13856.014 2181.0396 960
v 13760.014 1869.0396 971.872
v 13872.014 1973.0396 969.45575
v 13896.014 2045.0396 964.9683
v 13896.014 2125.0396 960
v 13776.014 2293.0396 963.74225
v 13848.014 2229.0396 970.9632
v 13504.014 2277.0396 959.9859
v 13408.014 2261.0396 960
v 13496.014 2309.0396 971.93286
f 1 2 3
f 4 3 2
f 4 2 5
f 503 511 516
f 6 7 11
f 5 8 4
f 9 4 8
f 10 1 3
f 516 517 503
f 3 12 10
f 3 13 12
f 14 10 12
f 10 14 15
f 14 16 15
f 15 16 17
f 12 18 14
f 19 20 21
f 25 23 24
f 258 23 25
f 25 19 21
f 29 22 28
f 36 33 32
f 24 27 25
f 27 30 29
f 43 25 27
f 29 28 27
f 31 32 33
f 31 34 32
f 34 35 32
f 35 36 32
f 36 35 37
f 36 37 38
f 39 38 37
f 39 40 38
f 37 41 39
f 33 42 31
f 42 33 22
f 22 26 42
f 22 29 26
f 27 28 43
f 44 45 46
f 45 44 47
f 48 45 47
f 46 64 44
f 53 52 58
f 51 52 53
f 25 21 258
f 54 51 55
f 56 54 55
f 55 57 56
f 63 44 64
f 56 57 59
f 57 60 59
f 58 62 53
f 62 61 53
f 59 60 63
f 59 63 64
f 51 54 52
f 64 49 59
f 130 129 90
f 90 79 130
f 128 89 108
f 115 102 111
f 115 148 74
f 107 117 105
f 102 67 111
f 123 133 146
f 87 142 136
f 100 77 99
f 133 137 147
f 89 86 108
f 117 126 70
f 73 79 90
f 93 92 125
f 87 150 65
f 75 101 118
f 133 147 146
f 141 70 126
f 81 80 150
f 132 71 123
f 64 46 50
f 73 65 68
f 135 90 83
f 77 122 116
f 123 71 76
f 127 119 120
f 134 66 139
f 107 151 140
f 99 103 100
f 70 134 105
f 125 121 120
f 150 87 136
f 125 120 93
f 77 81 122
f 140 117 107
f 115 101 102
f 109 104 112
f 112 103 109
f 95 74 148
f 453 127 95
f 132 146 85
f 76 113 123
f 456 99 116
f 116 75 118
f 92 93 128
f 128 108 92
f 140 151 145
f 74 72 115
f 103 99 109
f 99 77 116
f 70 105 117
f 110 72 74
f 84 94 147
f 82 114 96
f 115 72 101
f 132 78 149
f 90 135 73
f 88 150 80
f 104 109 78
f 82 94 114
f 454 104 78
f 86 97 108
f 72 118 101
f 322 105 134
f 123 146 132
f 88 80 69
f 135 87 65
f 127 120 121
f 79 141 130
f 73 135 65
f 121 143 127
f 126 130 141
f 149 71 132
f 134 139 322
f 143 121 98
f 428 103 112
f 131 142 124
f 136 122 81
f 81 150 136
f 124 142 87
f 112 144 428
f 106 95 127
f 127 143 106
f 91 126 117
f 105 152 107
f 105 153 152
f 161 155 156
f 164 160 158
f 155 164 158
f 164 409 159
f 161 157 155
f 158 167 155
f 167 156 155
f 156 154 161
f 94 84 114
f 163 166 154
f 156 163 154
f 164 159 160
f 166 163 165
f 170 169 171
f 183 186 175
f 171 173 170
f 178 171 179
f 177 176 175
f 171 178 173
f 172 183 175
f 183 172 173
f 176 174 172
f 180 178 179
f 180 179 181
f 182 181 179
f 175 176 172
f 181 184 180
f 178 185 173
f 185 186 173
f 186 185 187
f 188 186 187
f 188 187 189
f 190 189 187
f 191 190 187
f 191 192 190
f 191 193 192
f 170 168 169
f 189 195 188
f 196 195 189
f 196 197 195
f 197 196 198
f 187 194 191
f 195 197 200
f 200 197 201
f 202 201 197
f 203 201 202
f 196 199 198
f 197 205 202
f 202 204 203
f 200 207 195
f 207 208 195
f 173 186 183
f 172 174 173
f 171 209 179
f 210 182 179
f 179 209 210
f 211 212 213
f 212 211 214
f 214 215 212
f 216 215 214
f 216 214 217
f 215 218 212
f 219 218 215
f 220 219 215
f 215 221 220
f 221 222 220
f 222 221 223
f 223 221 224
f 224 225 223
f 224 226 225
f 227 225 226
f 228 227 226
f 229 227 228
f 230 229 228
f 201 206 200
f 232 229 231
f 232 231 233
f 233 234 232
f 229 230 231
f 235 233 236
f 233 237 236
f 237 238 236
f 238 237 239
f 238 240 236
f 240 238 241
f 236 242 235
f 236 243 242
f 244 242 243
f 245 244 243
f 243 246 245
f 247 235 242
f 248 235 247
f 228 249 230
f 250 230 249
f 250 251 230
f 252 251 250
f 250 253 252
f 254 253 250
f 233 235 234
f 253 255 256
f 255 257 256
f 506 260 261
f 331 500 504
f 504 261 331
f 288 331 262
f 261 263 262
f 262 331 261
f 253 254 255
f 256 257 433
f 266 265 250
f 266 267 265
f 267 266 268
f 268 269 267
f 270 269 268
f 268 271 270
f 272 271 268
f 273 271 272
f 273 272 274
f 335 332 274
f 276 275 274
f 277 275 276
f 278 275 277
f 275 278 279
f 250 265 254
f 278 277 281
f 281 277 282
f 283 281 282
f 281 283 284
f 284 283 285
f 286 285 283
f 286 287 285
f 316 520 314
f 283 289 286
f 285 290 284
f 290 291 284
f 290 292 291
f 293 292 290
f 293 290 294
f 278 280 279
f 291 292 296
f 296 297 291
f 440 297 296
f 298 296 299
f 296 300 299
f 301 299 300
f 300 302 301
f 300 303 302
f 294 295 293
f 304 303 305
f 303 306 305
f 288 315 331
f 522 314 520
f 305 309 304
f 303 304 302
f 311 304 309
f 311 309 312
f 309 305 432
f 524 317 259
f 524 525 317
f 259 317 263
f 259 261 260
f 263 261 259
f 319 311 312
f 429 311 319
f 312 321 319
f 438 210 320
f 302 323 301
f 301 323 324
f 319 320 429
f 298 299 326
f 326 327 298
f 281 284 442
f 397 400 330
f 347 350 349
f 323 325 324
f 332 273 274
f 268 333 272
f 271 334 270
f 274 275 335
f 250 336 266
f 336 250 337
f 338 337 250
f 249 338 250
f 525 526 339
f 527 533 532
f 519 508 340
f 342 336 337
f 314 318 316
f 342 343 336
f 337 345 342
f 346 342 345
f 346 345 347
f 348 346 347
f 347 349 348
f 343 342 344
f 347 351 350
f 350 351 352
f 352 353 350
f 354 350 353
f 354 353 355
f 355 353 356
f 356 357 355
f 356 358 357
f 358 359 357
f 360 357 359
f 361 357 360
f 360 362 361
f 359 363 360
f 359 364 363
f 363 364 365
f 365 364 366
f 368 366 364
f 370 367 369
f 370 452 451
f 162 367 370
f 366 371 365
f 366 372 371
f 373 371 372
f 374 373 372
f 373 374 375
f 373 375 376
f 372 377 374
f 377 372 378
f 379 377 378
f 379 378 380
f 380 381 379
f 381 380 382
f 383 381 382
f 381 383 384
f 384 385 381
f 382 211 383
f 211 213 383
f 365 386 363
f 386 365 387
f 387 388 386
f 388 387 389
f 390 389 387
f 387 391 390
f 389 392 388
f 393 392 389
f 393 389 394
f 389 395 394
f 394 395 396
f 394 397 393
f 394 398 397
f 397 399 393
f 329 399 397
f 400 397 401
f 397 330 329
f 402 401 403
f 404 402 403
f 405 402 404
f 406 402 405
f 406 405 407
f 405 408 407
f 409 404 403
f 403 410 409
f 393 399 411
f 399 412 411
f 399 413 412
f 388 414 386
f 401 402 400
f 355 415 354
f 253 417 252
f 417 253 418
f 355 416 415
f 420 252 417
f 421 420 417
f 420 421 422
f 422 421 423
f 418 419 417
f 425 420 422
f 422 426 425
f 223 427 222
f 147 137 84
f 312 309 313
f 430 222 427
f 222 430 431
f 432 310 309
f 433 264 256
f 70 138 134
f 434 222 431
f 431 435 434
f 261 504 506
f 210 209 320
f 321 436 319
f 321 437 436
f 320 319 438
f 438 439 210
f 296 298 440
f 440 441 297
f 488 487 443
f 423 424 422
f 443 489 488
f 445 447 338
f 445 338 249
f 249 446 445
f 446 449 448
f 446 448 444
f 446 444 450
f 450 445 446
f 450 451 445
f 451 447 445
f 451 452 447
f 450 162 451
f 162 370 451
f 409 164 404
f 404 164 408
f 408 405 404
f 155 408 164
f 341 166 152
f 166 165 152
f 95 148 453
f 53 453 51
f 453 55 51
f 453 148 57
f 57 55 453
f 148 60 57
f 455 454 78
f 78 132 455
f 43 454 455
f 455 25 43
f 457 456 116
f 116 118 457
f 458 459 460
f 459 458 461
f 458 462 461
f 462 463 461
f 463 462 464
f 465 464 462
f 464 465 466
f 466 465 467
f 467 465 468
f 465 469 468
f 465 470 469
f 471 470 465
f 472 475 456
f 456 457 472
f 465 474 471
f 469 470 475
f 470 476 475
f 466 477 464
f 475 478 469
f 472 479 478
f 479 480 478
f 481 480 479
f 482 481 479
f 483 481 482
f 484 481 483
f 483 482 485
f 486 483 485
f 487 486 485
f 152 153 341
f 487 488 486
f 478 475 472
f 469 490 468
f 473 466 467
f 497 492 491
f 492 497 500
f 495 494 493
f 495 496 494
f 497 495 493
f 495 497 498
f 499 495 498
f 497 493 500
f 500 493 501
f 493 502 501
f 511 503 509
f 501 504 500
f 512 505 504
f 506 504 505
f 6 519 7
f 515 7 519
f 509 506 505
f 509 510 506
f 505 511 509
f 504 501 512
f 478 512 501
f 501 469 478
f 478 480 512
f 9 8 499
f 499 498 9
f 513 514 515
f 515 514 516
f 514 517 516
f 516 518 515
f 519 513 515
f 340 513 519
f 519 507 508
f 520 521 522
f 521 520 523
f 522 521 524
f 259 522 524
f 524 526 525
f 524 527 526
f 328 528 527
f 528 529 527
f 527 529 530
f 527 524 328
f 530 531 527
f 527 532 526
f 339 534 525
f 534 535 525
f 534 536 535
f 535 536 307
f 536 308 307
f 525 535 288
f 262 525 288
# exported from NAVM 0009CB6A
